<?xml version="1.0"?>
<svg xmlns="http://www.w3.org/2000/svg" height="512px" viewBox="0 -76 512 512" width="512px" class=""><g><path d="m432 310c0 5.523438-4.476562 10-10 10s-10-4.476562-10-10 4.476562-10 10-10 10 4.476562 10 10zm0 0" data-original="#000000" class="active-path" data-old_color="#000000" fill="#117E1C"/><path d="m186 310c0 5.523438-4.476562 10-10 10s-10-4.476562-10-10 4.476562-10 10-10 10 4.476562 10 10zm0 0" data-original="#000000" class="active-path" data-old_color="#000000" fill="#117E1C"/><path d="m106 310c0 5.523438-4.476562 10-10 10s-10-4.476562-10-10 4.476562-10 10-10 10 4.476562 10 10zm0 0" data-original="#000000" class="active-path" data-old_color="#000000" fill="#117E1C"/><path d="m482 320c16.542969 0 30-13.457031 30-30v-80c0-1.351562-.351562-2.851562-.789062-3.902344l-34.898438-87.246094c-4.585938-11.453124-15.519531-18.851562-27.851562-18.851562h-96.460938v-50c0-16.542969-13.457031-30-30-30h-16v-10c0-5.523438-4.476562-10-10-10s-10 4.476562-10 10v10h-40v-10c0-5.523438-4.476562-10-10-10s-10 4.476562-10 10v10h-40v-10c0-5.523438-4.476562-10-10-10s-10 4.476562-10 10v10h-40v-10c0-5.523438-4.476562-10-10-10s-10 4.476562-10 10v10h-21.578125c-12.941406 0-24.382813 8.246094-28.46875 20.519531l-55.441406 166.320313c-.339844 1.015625-.511719 2.085937-.511719 3.160156v80c0 16.542969 13.457031 30 30 30h17.007812c1.503907 7.386719 4.640626 14.183594 9.019532 20h-46.027344c-5.523438 0-10 4.476562-10 10s4.476562 10 10 10h201c5.523438 0 10-4.476562 10-10 0-4.011719-2.363281-7.457031-5.773438-9.050781 4.761719-6.023438 8.179688-13.15625 9.765626-20.949219h148.015624c1.503907 7.386719 4.640626 14.183594 9.019532 20h-81.027344c-5.523438 0-10 4.476562-10 10s4.476562 10 10 10h201c5.523438 0 10-4.476562 10-10s-4.476562-10-10-10h-40.027344c4.378906-5.816406 7.515625-12.613281 9.019532-20zm-386 20c-16.542969 0-30-13.457031-30-30s13.457031-30 30-30 30 13.457031 30 30-13.457031 30-30 30zm80 0c-16.542969 0-30-13.457031-30-30s13.457031-30 30-30 30 13.457031 30 30-13.457031 30-30 30zm156-40h-107.007812c-4.644532-22.796875-24.84375-40-48.992188-40-16.339844 0-30.871094 7.878906-40 20.035156-9.128906-12.15625-23.660156-20.035156-40-20.035156-24.144531 0-44.347656 17.203125-48.992188 40h-17.007812c-5.515625 0-10-4.484375-10-10v-78.378906l54.929688-164.78125c1.359374-4.09375 5.175781-6.839844 9.492187-6.839844h237.578125c5.515625 0 10 4.484375 10 10zm139.230469-140 16 40h-75.230469v-40zm-49.230469 180c-16.542969 0-30-13.457031-30-30s13.457031-30 30-30 30 13.457031 30 30-13.457031 30-30 30zm0-80c-24.144531 0-44.347656 17.203125-48.992188 40h-21.007812v-180h96.460938c4.109374 0 7.757812 2.46875 9.285156 6.285156l5.484375 13.714844h-61.230469c-5.523438 0-10 4.476562-10 10v60c0 5.523438 4.476562 10 10 10h90v20h-20c-5.523438 0-10 4.476562-10 10s4.476562 10 10 10h20v30c0 5.515625-4.484375 10-10 10h-11.007812c-4.644532-22.796875-24.847657-40-48.992188-40zm0 0" data-original="#000000" class="active-path" data-old_color="#000000" fill="#117E1C"/><path d="m266 350c0 5.523438-4.476562 10-10 10s-10-4.476562-10-10 4.476562-10 10-10 10 4.476562 10 10zm0 0" data-original="#000000" class="active-path" data-old_color="#000000" fill="#117E1C"/><path d="m132.078125 230h7.351563c5.523437 0 10-4.476562 10-10s-4.476563-10-10-10h-7.351563c-7.882813 0-12.628906-8.660156-8.476563-15.300781l19.769532-31.628907 1.371094 5.105469c1.421874 5.308594 6.886718 8.511719 12.246093 7.070313 5.335938-1.425782 8.5-6.910156 7.070313-12.246094l-7.320313-27.320312c-.023437-.089844-.058593-.179688-.085937-.269532-1.558594-5.234375-7.011719-8.183594-12.160156-6.800781l-27.320313 7.320313c-5.335937 1.429687-8.5 6.914062-7.070313 12.246093 1.425782 5.335938 6.910157 8.503907 12.246094 7.070313l2.792969-.75-18.5 29.605468c-12.488281 19.988282 1.859375 45.898438 25.4375 45.898438zm0 0" data-original="#000000" class="active-path" data-old_color="#000000" fill="#117E1C"/><path d="m268.398438 194.699219c2.816406 4.503906 1.117187 8.609375.269531 10.144531-.859375 1.550781-3.4375 5.15625-8.746094 5.15625h-39.777344l2.925781-2.929688c3.90625-3.90625 3.90625-10.238281 0-14.144531-3.902343-3.902343-10.234374-3.902343-14.140624 0l-20 20c-.035157.035157-.0625.070313-.09375.105469-3.785157 3.890625-3.757813 10.070312 0 13.933594.03125.035156.058593.070312.09375.105468l20 20c3.90625 3.902344 10.234374 3.902344 14.140624 0 3.90625-3.90625 3.90625-10.238281 0-14.144531l-2.929687-2.925781h39.777344c11.058593 0 20.863281-5.773438 26.242187-15.464844 5.355469-9.683594 5.054688-21.0625-.804687-30.441406l-2.980469-4.757812c-2.929688-4.683594-9.101562-6.101563-13.78125-3.171876-4.683594 2.929688-6.101562 9.101563-3.171875 13.78125zm0 0" data-original="#000000" class="active-path" data-old_color="#000000" fill="#117E1C"/><path d="m170.769531 100.367188c4.679688 2.929687 10.851563 1.507812 13.78125-3.175782l2.96875-4.75c3.925781-6.28125 13.050781-6.253906 16.960938 0l18.5 29.597656-2.792969-.75c-5.335938-1.429687-10.816406 1.738282-12.246094 7.070313-1.429687 5.335937 1.738282 10.820313 7.070313 12.25l27.320312 7.316406c.023438.007813.042969.007813.066407.015625 5.3125 1.378906 10.757812-1.777344 12.179687-7.085937l7.320313-27.320313c1.429687-5.332031-1.734376-10.816406-7.070313-12.246094-5.335937-1.429687-10.816406 1.738282-12.25 7.070313l-1.367187 5.109375-19.773438-31.632812c-11.765625-18.816407-39.136719-18.773438-50.878906 0l-2.96875 4.75c-2.925782 4.683593-1.503906 10.855468 3.179687 13.78125zm0 0" data-original="#000000" class="active-path" data-old_color="#000000" fill="#117E1C"/></g> </svg>
