<?xml version="1.0"?>
<svg xmlns="http://www.w3.org/2000/svg" id="_x33_0" enable-background="new 0 0 64 64" height="512px" viewBox="0 0 64 64" width="512px"><g><path d="m48.05 56.536-2.272 2.272c-1.414 1.413-3.293 2.192-5.293 2.192h-1c-4.127 0-7.485-3.358-7.485-7.485 0-2 .779-3.879 2.192-5.293l20.015-20.015c2.459-2.459 3.813-5.729 3.813-9.207 0-.663-.065-1.315-.161-1.959l3.257-3.583c1.215-1.336 1.884-3.066 1.884-4.872 0-1.935-.753-3.753-2.122-5.122l-.343-.343c-1.368-1.368-3.186-2.121-5.121-2.121-1.805 0-3.536.669-4.873 1.884l-3.59 3.264c-3.914-.566-8.566 1.073-11.658 4.145l-18.757 18.757c-.613.613-1.427.95-2.293.95-1.788 0-3.243-1.455-3.243-3.243v-4.757h-2v4.757c0 2.891 2.352 5.243 5.243 5.243 1.4 0 2.717-.545 3.707-1.536l18.755-18.755c2.159-2.145 5.294-3.496 8.16-3.649-2.357 2.226-3.751 5.302-3.858 8.539l-39.355 42.307c-.421.452-.652 1.041-.652 1.658 0 1.343 1.093 2.436 2.436 2.436.618 0 1.207-.231 1.659-.652l42.305-39.354c3.271-.107 6.381-1.528 8.612-3.931-.016 2.801-1.087 5.598-3.22 7.73l-20.014 20.015c-1.791 1.791-2.778 4.173-2.778 6.707 0 5.23 4.255 9.485 9.485 9.485h1c2.534 0 4.916-.987 6.707-2.778l2.272-2.272c.944-.944 2.2-1.464 3.536-1.464s2.591.52 3.536 1.464l4.757 4.757 1.414-1.414-4.757-4.757c-2.73-2.73-7.17-2.73-9.9 0zm-1.05-35.536h-.393l-42.875 39.883c-.256.24-.732.032-.732-.319 0-.11.042-.216.117-.296l39.883-42.875v-.393c0-2.896 1.229-5.675 3.373-7.624l5.514-5.013c.967-.879 2.22-1.363 3.527-1.363 1.4 0 2.717.545 3.708 1.536l.343.343c.99.99 1.535 2.307 1.535 3.707 0 1.307-.484 2.56-1.363 3.527l-2.354 2.59c-.239-.684-.527-1.349-.878-1.984l1.752-1.946c.543-.6.843-1.376.843-2.184 0-.867-.338-1.682-.951-2.295l-.343-.343c-1.185-1.185-3.238-1.232-4.476-.111l-4.916 4.427c-1.584 1.44-2.21 2.774-2.312 4.921-.036.762.247 1.503.775 2.032l.001.001c.5.499 1.188.779 1.903.779.043 0 .087-.001.13-.003 2.147-.102 3.481-.728 4.925-2.315l1.227-1.363c.321.685.568 1.395.74 2.121l-1.08 1.188c-1.948 2.143-4.727 3.372-7.623 3.372zm4.486-10.896c.459.336.903.699 1.307 1.103.411.411.77.853 1.102 1.308l-1.642 1.824c-1.087 1.195-1.913 1.583-3.536 1.66-.199.01-.392-.061-.524-.192-.131-.132-.202-.323-.192-.524.076-1.623.464-2.449 1.656-3.532zm2.721-.311c-.379-.379-.787-.724-1.207-1.053l1.572-1.416c.477-.434 1.264-.415 1.72.041l.343.343c.235.236.365.548.365.881 0 .311-.115.609-.328.843l-1.412 1.568c-.327-.419-.672-.826-1.053-1.207z" data-original="#000000" class="active-path" data-old_color="#000000" fill="#117E1C"/></g> </svg>
